# xmcd CD database file
#
# Track frame offsets:
#	150
#	15402
#	28525
#	44550
#	69117
#	81417
#	101725
#	118247
#	134555
#	147542
#
# Disc length: 2213 seconds
#
# Revision: 0
# Processed by: cddbd v1.4PL0 Copyright (c) Steve Scherf et al.
# Submitted via: CdAid 2001.05.15.01
#
DISCID=8e08a30a
DTITLE=Fabulous Thunderbirds - The Fabulous Thunderbirds
DYEAR=1900
DGENRE=
TTITLE0=Tuff Enuff
TTITLE1=Stagger Lee
TTITLE2=Now Loosen Up Baby
TTITLE3=Feelin' Good
TTITLE4=Wrap It Up
TTITLE5=Knock Yourself Out
TTITLE6=Twist It Off
TTITLE7=Stand Back
TTITLE8=It Comes To Me Naturally
TTITLE9=You Can't Judge A Book By It's Cover
EXTD=Sony Music Special Products/KRB Music Companies budget-priced disc.
EXTT0=1987
EXTT1=1985
EXTT2=1989
EXTT3=1991
EXTT4=1986
EXTT5=1989
EXTT6=1987
EXTT7=1987
EXTT8=1987
EXTT9=1992
PLAYORDER=
